<svg height="128" viewBox="0 0 128 128" width="128" xmlns="http://www.w3.org/2000/svg" xmlns:xlink="http://www.w3.org/1999/xlink"><clipPath id="a"><path d="m0 720h576v-720h-576z" transform="translate(-116.54001 -593.43991)"/></clipPath><clipPath id="b"><path d="m0 720h576v-720h-576z" transform="translate(-411.71971 -522.16021)"/></clipPath><clipPath id="c"><path d="m0 720h576v-720h-576z" transform="translate(-411.71971 -461.16021)"/></clipPath><clipPath id="d"><path d="m0 720h576v-720h-576z" transform="translate(-312.71971 -401.16021)"/></clipPath><clipPath id="e"><path d="m0 720h576v-720h-576z" transform="translate(-357.77641 -190.7197)"/></clipPath><path d="m29.86666 0h68.26667a29.866668 29.866668 0 0 1 29.86667 29.8666v68.2667a29.866668 29.866668 0 0 1 -29.86667 29.8667h-68.26667a29.866668 29.866668 0 0 1 -29.86666-29.8667v-68.2667a29.866668 29.866668 0 0 1 29.86666-29.8666z" fill="#fff" height="120" stroke-linecap="round" stroke-linejoin="round" stroke-width="6.42672" width="120" x="4" y="4"/><path clip-path="url(#a)" d="m0 0c-20.082 0-36.42-16.338-36.42-36.42v-169.2c0-20.082 16.338-36.42 36.42-36.42h231.66c6.628 0 12-5.373 12-12v-52.684l60.961 61.156c2.252 2.259 5.31 3.528 8.499 3.528h27.08c20.082 0 36.42 16.338 36.42 36.42v169.2c0 20.082-16.338 36.42-36.42 36.42zm231.657-347.76c-1.542 0-3.098.297-4.58.91-4.489 1.854-7.417 6.232-7.417 11.09v69.72h-219.66c-33.315 0-60.42 27.105-60.42 60.42v169.2c0 33.316 27.105 60.42 60.42 60.42h340.2c33.316 0 60.42-27.104 60.42-60.42v-169.2c0-33.315-27.104-60.42-60.42-60.42h-22.098l-77.943-78.192c-2.297-2.304-5.372-3.528-8.502-3.528" transform="matrix(.19954885 0 0 -.1997152 30.056741 13.793164)"/><path clip-path="url(#b)" d="m0 0h-250.44c-6.627 0-12 5.373-12 12s5.373 12 12 12h250.44c6.627 0 12-5.373 12-12s-5.373-12-12-12" transform="matrix(.19954885 0 0 -.1997152 88.959511 28.028803)"/><path clip-path="url(#c)" d="m0 0h-250.44c-6.627 0-12 5.373-12 12s5.373 12 12 12h250.44c6.627 0 12-5.373 12-12s-5.373-12-12-12" transform="matrix(.19954885 0 0 -.1997152 88.959511 40.21143)"/><path clip-path="url(#d)" d="m0 0h-151.44c-6.627 0-12 5.373-12 12s5.373 12 12 12h151.44c6.627 0 12-5.373 12-12s-5.373-12-12-12" transform="matrix(.19954885 0 0 -.1997152 69.204175 52.194342)"/><path clip-path="url(#e)" d="m0 0h-39.576v99.84c0 6.959-5.642 12.6-12.601 12.6h-37.439c-6.959 0-12.6-5.641-12.6-12.6v-99.84h-40.028c-11.016 0-17.36-12.516-10.85-21.4l71.316-97.321c5.215-7.117 15.84-7.126 21.066-.016l71.549 97.319c6.531 8.883.188 21.418-10.837 21.418" transform="matrix(.19954885 0 0 -.1997152 78.195187 94.222509)"/></svg>
